HIERARCHY
ROOT Hips
{
	OFFSET 0.000000 0.000000 0.000000
	CHANNELS 6 Xposition Yposition Zposition Xrotation Yrotation Zrotation
	JOINT Spine1
	{
		OFFSET 0.000000 10.413555 0.000009
		CHANNELS 6 Xposition Yposition Zposition Xrotation Yrotation Zrotation
		JOINT Neck
		{
			OFFSET 0.000000 8.302051 0.000009
			CHANNELS 6 Xposition Yposition Zposition Xrotation Yrotation Zrotation
			JOINT Head
			{
				OFFSET 0.000000 5.278800 0.681136
				CHANNELS 6 Xposition Yposition Zposition Xrotation Yrotation Zrotation
				End Site
				{
					OFFSET 0.000000 6.811335 0.000001
				}
			}
		}
		JOINT LeftShoulder
		{
			OFFSET 1.371625 6.703465 -0.180044
			CHANNELS 6 Xposition Yposition Zposition Xrotation Yrotation Zrotation
			JOINT LeftArm
			{
				OFFSET 4.894350 0.000000 0.000000
				CHANNELS 6 Xposition Yposition Zposition Xrotation Yrotation Zrotation
				JOINT LeftForeArm
				{
					OFFSET 9.597040 0.000000 0.000000
					CHANNELS 6 Xposition Yposition Zposition Xrotation Yrotation Zrotation
					JOINT LeftHand
					{
						OFFSET 8.919184 0.000000 0.000000
						CHANNELS 6 Xposition Yposition Zposition Xrotation Yrotation Zrotation
						End Site
						{
							OFFSET 5.108500 0.000000 0.000000
						}
					}
				}
			}
		}
		JOINT RightShoulder
		{
			OFFSET -1.352705 6.703465 -0.180044
			CHANNELS 6 Xposition Yposition Zposition Xrotation Yrotation Zrotation
			JOINT RightArm
			{
				OFFSET -4.894350 0.000000 0.000000
				CHANNELS 6 Xposition Yposition Zposition Xrotation Yrotation Zrotation
				JOINT RightForeArm
				{
					OFFSET -9.597035 0.000000 0.000000
					CHANNELS 6 Xposition Yposition Zposition Xrotation Yrotation Zrotation
					JOINT RightHand
					{
						OFFSET -8.919189 0.000000 0.000000
						CHANNELS 6 Xposition Yposition Zposition Xrotation Yrotation Zrotation
						End Site
						{
							OFFSET -5.108500 0.000000 0.000000
						}
					}
				}
			}
		}
	}
	JOINT LeftUpLeg
	{
		OFFSET 3.405675 0.000000 0.000000
		CHANNELS 6 Xposition Yposition Zposition Xrotation Yrotation Zrotation
		JOINT LeftLeg
		{
			OFFSET 0.000000 -14.323091 -0.000010
			CHANNELS 6 Xposition Yposition Zposition Xrotation Yrotation Zrotation
			JOINT LeftFoot
			{
				OFFSET 0.000000 -15.016126 -0.000010
				CHANNELS 6 Xposition Yposition Zposition Xrotation Yrotation Zrotation
				JOINT LeftToeBase
				{
					OFFSET 0.000000 -2.213690 5.108510
					CHANNELS 6 Xposition Yposition Zposition Xrotation Yrotation Zrotation
					End Site
					{
						OFFSET 0.000000 0.000000 1.362270
					}
				}
			}
		}
	}
	JOINT RightUpLeg
	{
		OFFSET -3.405675 0.000000 0.000000
		CHANNELS 6 Xposition Yposition Zposition Xrotation Yrotation Zrotation
		JOINT RightLeg
		{
			OFFSET 0.000000 -14.323091 -0.000010
			CHANNELS 6 Xposition Yposition Zposition Xrotation Yrotation Zrotation
			JOINT RightFoot
			{
				OFFSET 0.000000 -15.016126 -0.000010
				CHANNELS 6 Xposition Yposition Zposition Xrotation Yrotation Zrotation
				JOINT RightToeBase
				{
					OFFSET 0.000000 -2.213690 5.108510
					CHANNELS 6 Xposition Yposition Zposition Xrotation Yrotation Zrotation
					End Site
					{
						OFFSET 0.000000 0.000000 1.362270
					}
				}
			}
		}
	}
}
MOTION
Frames: 4
Frame Time: 0.016667
4.261985 28.002281 -0.588528 10.478289 -4.024164 4.636980 0.000001 10.413550 0.000004 -5.600200 4.070269 4.271742 0.000002 8.302041 0.000003 6.589930 -3.864261 -0.869571 -0.000002 5.278811 0.681139 17.970468 -3.810409 8.455046 1.371623 6.703448 -0.180044 -7.751454 -0.110467 18.311093 4.894353 -0.000001 -0.000000 7.711891 -19.596159 -18.710338 9.597033 0.000012 -0.000005 4.489579 -42.297186 35.291236 8.919194 0.000006 -0.000001 -10.469754 3.386141 30.698620 -1.352699 6.703458 -0.180045 -5.828797 2.667379 -13.301140 -4.894353 -0.000004 -0.000000 -1.110632 58.231980 55.569722 -9.597044 -0.000001 -0.000003 163.751818 66.368204 -198.697183 -8.919188 -0.000005 -0.000016 -44.640214 -1.912951 -7.957278 3.405676 -0.000002 -0.000001 -31.002075 19.389111 21.362014 0.000001 -14.323080 -0.000003 39.157785 9.360703 -15.349653 -0.000004 -15.016127 -0.000009 -8.131333 18.014354 -0.778803 -0.000002 -2.213691 5.108509 -0.000001 -0.000009 -0.000003 -3.405674 -0.000006 -0.000001 -21.570868 7.504577 -35.520740 0.000006 -14.323087 -0.000005 32.840451 -22.951848 30.996276 0.000006 -15.016135 -0.000010 1.369877 -27.980143 8.770344 0.000000 -2.213690 5.108509 -0.000002 -0.000001 -0.000001 
4.256320 28.004179 -0.598443 10.416866 -3.971869 4.579272 0.000000 10.413546 0.000010 -5.464856 4.255166 4.223311 0.000001 8.302036 0.000009 6.704363 -4.266884 -0.841513 0.000000 5.278804 0.681135 18.579506 -4.156544 9.072704 1.371623 6.703449 -0.180044 -7.732460 -0.214798 18.180920 4.894354 0.000000 -0.000000 7.745931 -20.013791 -18.839403 9.597034 -0.000004 0.000001 5.372069 -42.842853 36.404014 8.919180 0.000008 0.000002 -10.205100 3.125047 31.313453 -1.352700 6.703455 -0.180044 -5.802156 2.783863 -13.172307 -4.894350 -0.000021 -0.000001 -0.206658 59.762598 55.044959 -9.597041 -0.000003 -0.000001 165.538883 66.306090 -200.673553 -8.919190 -0.000010 0.000005 -45.727915 -0.830888 -8.866213 3.405675 -0.000009 0.000001 -30.984818 19.323346 21.388696 -0.000001 -14.323074 -0.000006 39.149340 9.331350 -15.327590 -0.000004 -15.016126 -0.000011 -8.115137 18.033545 -0.809928 0.000001 -2.213685 5.108510 -0.000002 -0.000009 0.000000 -3.405674 -0.000007 0.000001 -20.848625 8.161567 -35.589432 0.000004 -14.323083 -0.000010 32.766323 -23.630163 31.596592 0.000003 -15.016126 -0.000011 1.352605 -28.166892 8.654551 0.000000 -2.213690 5.108507 -0.000002 -0.000003 -0.000001 
4.249655 28.006220 -0.611908 10.371227 -3.907623 4.495782 -0.000000 10.413561 0.000009 -5.295447 4.396231 4.174634 -0.000000 8.302055 0.000003 6.770113 -4.661982 -0.817644 0.000001 5.278825 0.681133 19.156782 -4.492130 9.677542 1.371622 6.703465 -0.180044 -7.770185 -0.282456 18.093963 4.894350 0.000008 -0.000000 7.844662 -20.417662 -19.006053 9.597037 -0.000004 -0.000004 6.396291 -43.327237 37.716591 8.919174 0.000001 -0.000001 -9.910267 3.010440 31.687959 -1.352706 6.703465 -0.180044 -5.828914 2.938188 -13.079169 -4.894352 -0.000003 0.000000 0.866081 60.803307 54.538876 -9.597048 -0.000005 -0.000002 169.168090 65.613475 -203.886720 -8.919193 -0.000006 0.000000 -47.292298 -1.965672 -7.403695 3.405675 0.000000 0.000000 -31.010674 19.243004 21.439650 0.000001 -14.323078 -0.000004 39.141024 9.242451 -15.296683 -0.000002 -15.016128 -0.000010 -8.110038 18.095550 -0.785497 0.000005 -2.213692 5.108508 0.000000 -0.000004 0.000002 -3.405675 0.000003 -0.000001 -20.814568 8.084784 -35.506530 0.000003 -14.323090 -0.000005 32.766265 -23.690026 31.585783 0.000007 -15.016126 -0.000010 1.383012 -28.137321 8.678332 -0.000000 -2.213691 5.108511 0.000003 -0.000001 0.000003 
4.244025 28.006384 -0.623553 10.307480 -3.833749 4.422096 -0.000000 10.413549 0.000009 -5.139533 4.557090 4.119620 0.000001 8.302063 0.000003 6.896050 -5.052612 -0.818263 -0.000000 5.278800 0.681136 19.667622 -4.820981 10.354575 1.371623 6.703478 -0.180045 -7.751317 -0.401730 17.989528 4.894351 -0.000005 -0.000000 7.877061 -20.734636 -19.195439 9.597036 -0.000006 -0.000002 7.356497 -43.993774 38.973712 8.919177 -0.000012 0.000008 -9.712173 2.772752 32.149253 -1.352705 6.703470 -0.180044 -5.831351 3.065601 -12.968726 -4.894352 -0.000011 0.000005 2.104817 61.923909 53.724700 -9.597041 0.000003 -0.000000 172.273394 65.064560 -206.668233 -8.919192 -0.000011 -0.000001 -48.625435 -2.172012 -6.869946 3.405676 -0.000005 -0.000000 -31.043343 19.213718 21.483721 -0.000001 -14.323086 -0.000005 39.163868 9.223722 -15.232929 -0.000005 -15.016127 -0.000006 -8.097038 18.045780 -0.795959 -0.000001 -2.213690 5.108508 0.000001 0.000001 0.000004 -3.405675 0.000000 -0.000000 -21.011221 7.729843 -35.422812 -0.000002 -14.323083 -0.000005 32.814531 -23.482216 31.389227 0.000006 -15.016123 -0.000007 1.418856 -28.021667 8.729290 0.000000 -2.213691 5.108509 0.000002 0.000005 -0.000001 
